<svg width="22" height="22" viewBox="0 0 22 22" fill="none" xmlns="http://www.w3.org/2000/svg">
<path fill-rule="evenodd" clip-rule="evenodd" d="M18.3703 9.5C18.3703 13.8467 14.8467 17.3703 10.5 17.3703C6.15333 17.3703 2.62966 13.8467 2.62966 9.5C2.62966 5.15333 6.15333 1.62966 10.5 1.62966C14.8467 1.62966 18.3703 5.15333 18.3703 9.5ZM15.512 17.5718C14.0571 18.4771 12.3396 19 10.5 19C5.25329 19 1 14.7467 1 9.5C1 4.25329 5.25329 0 10.5 0C15.7467 0 20 4.25329 20 9.5C20 12.3212 18.7703 14.8551 16.8176 16.5951L19.9324 20.4861C20.2136 20.8374 20.1568 21.3502 19.8055 21.6314C19.4541 21.9126 18.9413 21.8558 18.6601 21.5045L15.512 17.5718Z" fill="#060617"/>
</svg>
